<?xml version="1.0"?><svg version="1.2" baseProfile="tiny-ps" viewBox="0 0 300 300" xmlns="http://www.w3.org/2000/svg" xmlns:xlink="http://www.w3.org/1999/xlink"><title>sapeYour Brand/Organization</title><g><g fill="#ebc0b0" transform="matrix(.1 0 0 -.1 0 300)"><path d="M0 1500V0h3000v3000H0V1500z"/></g><g fill="#bc9a8b" transform="matrix(.1 0 0 -.1 0 300)"><path d="M0 1500V0h3000v3000h-761l11-20c6-11 14-20 19-20 8 0 31-44 31-60v-9l-15 5-15 6v-8c0-5 13-24 29-42l30-33-6-37c-7-42-7-49-3-77l2-20 8 30 8 30 1-27c0-15 6-30 11-33 6-3 10-15 10-26v-20l-21 6c-12 4-57 8-100 9s-81 5-85 9-25 7-46 7h-38v20h-71l-22 14c-12 7-41 16-64 20l-43 6v-20l-33 19-33 19-43-4c-23-2-46-6-50-9-5-2-20 4-33 15-14 10-36 22-49 25l-25 6-26-10-25-10-11 11-10 10-14-8c-7-5-21-7-30-6l-18 3v-25l-12 12c-7 7-20 12-29 12-10 0-19 5-21 11l-4 12-23-12-23-13-46 11c-26 6-63 12-82 14-57 7-93 19-122 38-29 21-48 24-48 9 0-5-5-10-12-10h-12l12 12c7 7 12 22 12 35v23h20v19c0 10 7 24 16 31 8 8 20 22 25 32l10 18H0V1500zm1702 967c5-7 11-23 14-37s9-33 14-42l10-17-13-13-12-13 2-73 1-73 16-39c8-21 13-40 10-42-2-3 0-17 5-31l10-26-52-19-52-20-84 5-85 5-20 26c-12 14-24 37-28 49l-7 24 14 32c7 18 29 47 48 66l35 33 6 24c4 13 11 24 17 24h10l-6 20-6 20h10c15 0 14 17-2 32l-14 12 11 21c7 11 23 33 36 48l25 28 40-6 39-6 8-12zm-585-73c-3-3-12-4-19-1l-13 5 19 1c11 1 17-2 13-5zm216-219c-3-9-8-14-10-11-3 3-2 9 2 15 9 16 15 13 8-4zm-81-19 7-11 13 13c19 19 25 14 20-19l-4-30-18-11-18-12 5-11 4-12-20-39c-11-22-23-57-26-79s-10-53-15-70c-5-16-12-67-15-111l-7-81 26-20 25-20-6-7c-3-3-16-6-27-6h-21l13-9 13-8-15-37c-16-38-22-41-46-26l-14 9-11-8-10-8-47 5-48 4v38h-10c-5 0-10-4-10-10 0-5-5-10-11-10h-11l5 19 5 19-26 12-26 11 11 7 10 7-8 23c-10 26-9 26-45 7l-28-14 17-7c9-3 17-10 17-15v-9h-48l2 17 1 17-15 1c-8 1-28 7-43 13l-29 12 3 63 2 62 19 33c10 18 18 39 18 45 0 7 6 24 14 39 17 33 40 98 42 118 2 32 17 80 24 80 5 0 15 3 24 6l16 6v-34l14 11 14 12 39-7 38-7 13-16 13-16 15 23c19 26 34 29 34 5v-17l13 19 14 18 10-6 11-7 6 15 5 15h21c11 0 20 4 20 8 0 13 34 11 42-2zm690-87 41-40 28-6c16-3 29-9 29-14s6-9 14-9c7 0 20-10 28-22l15-23 16 14 17 13 10-26c11-30 13-30 39-15l18 12 31-14c38-17 43-27 48-107l4-63 11-22c7-12 17-25 23-29l11-7v-172l-18-10-17-10 6-10 6-10 14 12 14 11v-32l-17-1c-10 0-31-2-48-4l-29-4-14 11-14 12-9-15-9-14 6-19 6-19-40 7-41 6-6-10-6-10 18-1c10-1 23-1 29 0 7 1 14-5 17-13l6-14-21 6-21 5 7-11 7-12h-10c-5 0-13 4-16 10l-6 10-23-27-23-27-34 14c-19 8-38 20-42 27s-16 13-26 13h-18l-19 39-18 38-16-4-15-4-20 16-20 15 30-7 30-6-14 16-13 17h22l21 44 21 45-3 23c-2 13 0 28 4 35l7 11-9 25c-5 14-7 27-4 30s6 31 8 63l2 57-13 51c-8 28-14 62-14 76s-7 38-15 54c-15 28-20 66-10 66 3 0 24-18 47-41zm-92-179c0-5-4-10-10-10-5 0-10 5-10 10 0 6 5 10 10 10 6 0 10-4 10-10zM820 1645l12-15h-54l12 15c7 8 14 15 15 15s8-7 15-15zm1397-207-5-13-1 19c-1 11 2 17 5 13 3-3 4-12 1-19zm-668-55 41-27-14-14-14-15-34 7c-19 3-43 13-54 20l-19 14 19 21c24 27 26 26 75-6zm-54-139 30-16 33 1h32v-12c0-7-5-19-10-27l-10-15v22l-25-5-25-4v24l-17-13-16-14-4 13c-3 6-8 10-13 7-4-3-21 0-37 5l-29 10v40h61l30-16zm-320-464-7-11 10-12 10-12-14-13-14-13v29c0 16 3 32 7 35 10 11 15 8 8-3zm65-60c0-5-4-10-10-10-5 0-10 5-10 10 0 6 5 10 10 10 6 0 10-4 10-10zm1060 905-12-15h32v15c0 8-2 15-4 15s-9-7-16-15zm-245-125c3-5 8-10 11-10 2 0 4 5 4 10 0 6-5 10-11 10h-10l6-10zm-895 1496c0-2 7-9 15-16l15-13-6 17c-5 14-24 23-24 12zm1086-63-7-16 11-11 10-10v27c0 31-5 34-14 10z"/></g><g fill="#967564" transform="matrix(.1 0 0 -.1 0 300)"><path d="M400 2985c0-8-3-15-7-15-5 0-8-16-9-35v-35l-21-22c-11-13-26-34-33-48l-13-25 23 20 23 20-6-20c-3-11-18-51-34-89l-29-69-22-8c-12-5-22-13-22-19v-11l10 6 10 6v-10c0-6-9-20-20-31s-20-23-20-26c0-12-52-55-76-65l-24-9v-19c0-11-4-23-10-26-5-3-10-11-10-17v-11l20 18c33 30 34 10 1-28-17-19-31-40-31-46 0-14-57-71-71-71H18l8 32 7 33-16-14-17-13V0h3000v3000h-513l16-17 15-18 6-65c3-36 3-57 0-47-3 9-9 17-14 17h-9l3-22c2-13 8-36 15-51 13-34 14-57 2-57h-8l-15 68-14 67 8 3 8 4-6 26c-3 15-10 42-16 60l-10 32h-100l6-17 6-18-12 16-13 15-42 2-42 3 40-80c21-44 39-89 39-100s7-38 16-60l15-39-3-48-3-49-28-3-28-3 13-17 13-16-15 6c-35 12-91 28-175 49l-90 22-75-2-74-2-13-11-13-10v22l-26-4-25-5-6 15-5 14h-22c-28 0-45-12-43-30 1-8-2-36-7-62l-8-46-20-5-20-6 6-9 6-10-12-5c-7-2-21 0-30 4l-17 9-15-6-16-6 6-9 5-9h84l17-39c10-22 22-67 27-99 5-33 17-75 27-94 19-38 152-178 168-178 6 0 33-11 60-25s55-25 63-25c7 0 13-5 13-11v-10l19 6 18 5 13-15c7-8 16-13 20-10 4 2 31-4 61-14l54-19 3-29c1-15 6-37 11-48 25-58 31-77 31-93 0-34 22-94 41-113l20-20 1-45 1-44 8-6 9-5-4-61c-3-33-7-63-10-66s-1-11 5-18l11-13-7-21-6-20h-41l5-15 6-14-9-6-9-6 5-13 5-14-12-8-12-7 6 16 6 17h-29v-41l-15-5-15-6-15 12-15 12v-22h-17l-18-1 19-14c10-8 23-12 27-9l9 5v-21h-106l-12 12-13 13-8-14-9-14-16 6-16 6v42l-10-6-9-6-23 23-22 22-40 4-41 3-7 12-7 12 16 6 17 6-17 6c-9 3-17 11-17 17 0 9-31 45-114 133l-28 30 30-6 31-6 21 17 22 18 11 82 11 82-14 25c-7 14-18 25-23 25-6 0-27 18-48 41l-38 41-18 43-18 44-40 20-40 20-82-10-82-9-56 25c-30 14-55 30-55 35v10h-38l-7-31-7-30-30-35c-17-19-35-34-41-34-5 0-27-17-47-37l-37-38-6-63-7-64 10-18 10-19 38-11c20-5 49-10 65-10h27v-8c0-5-13-24-30-42l-30-34v33l-35-20-34-21-10 6-10 7-11-21-11-20h-16c-9 0-21-7-27-15l-11-15-46-3-46-2-19-15-18-15 8 13 7 12-8-1c-4 0-22-18-39-39l-32-40-7 17-6 17 7-7 7-7 19 17c10 9 18 20 18 25v8l-31-5c-17-3-40-3-50 0l-19 6 16 24 15 23-10 6-10 6-5-8c-2-4-27-9-55-10l-51-2v35l-24-30-25-30v55c0 30-1 66-2 80-2 44 13 114 32 152 11 21 19 43 19 50v13l-27-30-26-30 9 20c4 11 8 37 8 58v37h24l11 33 11 32 30 28c32 30 37 46 20 63l-10 10 15 37c8 19 19 38 25 42l10 6 1-13v-13l11 23 11 22 31 8 31 9 35-9 35-8 40 5c22 3 56 7 75 9 65 7 181 36 195 47 5 5 18 9 28 9h19l64 51 63 52 10 30c6 16 11 37 11 45 0 21 48 82 64 82 8 0 18 6 24 13l11 12 5 72c2 40 7 77 11 83l6 10h-21v50h-10c-5 0-19-10-30-22l-21-23-9 14-8 15-17-14-17-14-14 19-14 19v-15l-1-14-14 19-15 20v-15l-1-14-20 28c-11 15-25 27-31 27h-10l6-15c7-18 7-18-38 0-20 9-56 17-79 18-24 2-49 7-57 12s-53 16-99 25l-84 15-10 17-11 16 13 44c7 23 19 58 27 76l14 32H400v-15zm2018-75 4-22-11-11-11-11v54l-25 12c-14 6-25 15-25 19v8l33-14 32-13 3-22zm169-82-5-13-1 19c-1 11 2 17 5 13 3-3 4-12 1-19zm23-11c0-24-25-66-33-57-5 5 24 80 30 80 2 0 3-10 3-23zm10-111v-55l-10-6-10-6v121h20v-54zm-1020-40c0-3-4-8-10-11l-10-6v10c0 6 5 11 10 11 6 0 10-2 10-4zm10-35c0-6-4-13-10-16l-10-6v15c0 9 5 16 10 16 6 0 10-4 10-9zm999-28v-28l-9 20c-12 27-12 35 0 35h10l-1-27zm-39-49c0-8-4-14-10-14h-10v41l10-6c6-3 10-13 10-21zm49-62 1-13-10 6-10 6 1 27v27l9-20c5-11 9-26 9-33zm-2454-12 6-10h-10c-5 0-13 5-16 10l-6 10h10c5 0 13-4 16-10zm959-66c9-3 16-12 16-19v-13l-22-3c-13-3-41-2-62 1l-39 5 14 11c28 22 64 29 93 18zM57 2235l-10-44-15-6-14-5 6 24c11 45 25 76 34 76h9l-10-45zm-23-151c3-9 3-20 0-26l-6-10-9 13c-11 18-11 39 0 39 5 0 12-7 15-16zm0-69-6-15-9 6c-14 8-10 24 6 24h14l-5-15zm2559-172 9-21-7-12-7-11 15-17c8-9 18-33 21-52l7-35-21 40c-24 45-45 105-53 150-3 17-8 39-12 50-5 18 21-34 48-92zm-197 84 14 5v-10c0-6 3-19 6-29l7-18-16 20-16 20-1-11c0-6 9-33 21-59 22-49 20-66-6-45l-15 12v-43l-10 6c-5 3-10 16-10 28s-7 35-15 51c-18 34-19 58-3 74l12 12 9-9 9-9 14 5zm214-41-1-11-14 19c-8 11-15 25-15 30l1 11 14-19c8-11 15-25 15-30zm-133-38-5-13-1 19c-1 11 2 17 5 13 3-3 4-12 1-19zm61-3c-3-3-9 2-12 12l-7 18 12-12c7-7 10-15 7-18zm-15-82c9-47 1-41-17 14l-16 48 14-15c7-8 16-30 19-47zm61-58 7-30-11 15c-5 8-10 24-10 34 0 26 6 18 14-19zm-96-14c7-21 12-47 12-57l-1-19-13 25c-8 14-17 40-21 58l-7 32h10c5 0 14-17 20-39zm-17-131h9v-22l-1-23-19 24c-21 24-26 52-12 65l7 8 3-26 3-26h10zm-1065-17c-2-3-9-2-15 2l-11 6 12 22 13 22 3-23c2-13 1-26-2-29zm279 27 20-9h-16l-16-1 7-39 7-40-26 17c-14 9-36 27-48 41l-23 26-15-19c-8-10-12-23-9-27l5-9h-70l-6 21-7 20-14-5-14-5v21l28-6 27-6 50 14c59 16 93 18 120 6zm-49-87 7-24-10-10-11-11-11 33c-6 17-11 36-11 40v8l15-5 15-6 6-25zm-103-57-7-11 17 14 17 13 10-27 10-26 10 6c5 3 10 14 11 23v17l9-22c5-13 14-23 20-23h10v34l11-11 11-11-13-35-12-35-30-6c-46-9-111-7-146 5l-31 11v12c0 7 19 34 42 59l41 47 14-11 13-11-7-12zm-28-171c39-10 96-25 128-34l58-16 14-28 14-27-21-11-20-11-26 7c-15 4-49 9-77 10-27 2-75 9-105 15s-76 13-102 15l-48 4-5-10-6-9h18c10 0 64-16 119-35l101-34 64 1c35 0 72 0 82-1l17-1v-14c0-7 7-19 15-26l14-12-15-23-15-23 10-7c6-3 11-16 10-28l-1-22-14 32c-7 17-18 34-23 37l-9 6 5-20 5-20h-15c-8 0-17-5-19-12l-4-12-7 18-7 17 10-6 10-6v20c0 11-4 22-9 25l-9 6-10-27-9-28-17 33c-20 38-29 42-20 8l6-24-11-7-11-6-9 24c-6 14-15 28-21 32l-11 7-14-12-13-11-7 11-6 10h-79v-10c0-5 5-10 12-10h11l-21-23c-12-13-22-30-22-38s-9-25-19-38l-18-24-8 13-8 12 10 7c6 3 20 25 31 49l20 42h-11c-6 0-19-8-30-17l-20-18 6 18c9 23 2 22-39-10l-35-26 5-13 5-13-9-6-10-6 15-30c9-16 20-29 25-29 6 0 10-5 10-11 0-7 8-18 18-26 9-8 12-12 6-9l-11 5-12-26c-15-32-6-43 15-17l15 19-4-20c-3-11-8-28-12-37l-7-18h42v48l14 5 14 6 6-14 5-14-11-33c-14-42-11-41-42-27-33 16-42 6-22-23l16-22v38l14-20 15-19-14-3c-8-2-17-12-20-23-4-10-11-19-16-19h-10l6-11 7-10-7-27-7-27-10 18-10 18-12-16-12-17-12 15-13 15 31 13c38 18 38 29 0 29h-30v-8c0-5-12-14-27-21l-27-12-17 23-18 23-6-18-7-17h-49l6 10 6 10h-10c-6 0-11-4-11-10 0-5-5-10-11-10h-11l5 13 4 12-13 13-13 12-11-18-10-17 2 29 3 29-12 4-13 5v-30l-21-5-21-6 5 32c3 18 3 26 0 20-2-7-8-13-13-13h-8l3 34 3 34-18-5-18-5-21 18-21 18v67l21 49 21 48 31 5c63 10 122 28 138 43l17 15v47l42 38c23 22 46 40 49 42 8 3 41-95 41-121v-17l-12 3-12 2-3-16c-2-8 1-28 7-43l10-28 15 12c8 7 15 19 15 26 0 8 5 14 11 14h11l-16 25c-9 13-16 29-16 36v11l15-6 15-5v9c0 6 7 10 15 10h15v13c0 7 5 18 12 25l12 12 13-12c17-13 28-4 20 17l-6 15h-59l-25-30c-14-16-28-30-31-30s-6 16-6 35v35h20v45l22 10 22 10 7 28c4 16 13 35 19 43l12 14 10-6 9-6 6 20 5 21 17 5c20 5 38 3 126-19zm288-295 2-33-15-4-15-5 14 10 13 10-11 6-11 7v63l11-11c6-6 12-25 12-43zm-243 20c0-5-4-10-10-10-5 0-10 5-10 10 0 6 5 10 10 10 6 0 10-4 10-10zm141-51-10-24v21c-1 11 2 24 6 27 12 12 14 0 4-24zm69-151v-9l18 5 19 6 17-19 18-20-5-13-4-13 15-18c9-10 17-28 17-40v-22h50v14c0 8 5 16 10 18l11 3-2-27-1-28 16-19 16-19-27 7-28 6v-30l-24 15-24 16-6-10-7-10-17 5-17 6 18-15c9-8 17-17 17-21 0-12-23-6-42 11l-18 16v-14c0-8 5-20 12-27l12-12h-8c-5 0-14 7-21 16l-12 17-14-15-14-15-22 26-23 26-1-20v-20l-11 23c-12 23-28 30-28 10v-11l-7 6-6 7-12-17-12-17-12 22c-6 12-16 22-22 22h-11l4-12 4-11-22-24-22-23 2-17 1-16-12-4-12-4-16 36-15 37-15-6-15-5v14c0 8 3 14 8 14 4-1 11-1 16 0l8 1-16 25-17 26 6 37c4 20 9 44 13 52 3 8 7 26 8 39 4 33 11 37 34 16l19-18 10 27c11 27 31 36 31 12 0-7 11-21 24-29l24-16 16 17c9 9 23 26 30 37l14 19 16-13 16-13v32l25-12c14-6 25-15 25-20zm-373-210-5-13-1 19c-1 11 2 17 5 13 3-3 4-12 1-19zm-330-14c-3-3-12-4-19-1l-13 5 19 1c11 1 17-2 13-5zm293-44c0-5-2-10-4-10-3 0-8 5-11 10l-6 10h10c6 0 11-4 11-10zm190 530c0-5 5-10 10-10 6 0 10 5 10 10 0 6-4 10-10 10-5 0-10-4-10-10zM260 2750c0-5 5-10 10-10 6 0 10 5 10 10 0 6-4 10-10 10-5 0-10-4-10-10zM98 2483c7-3 16-2 19 1 4 3-2 6-13 5l-19-1 13-5zm-30-70c-8-10-18-24-22-30l-7-13 15 6c9 3 16 11 16 16 0 6 8 17 18 24l17 13-11 1c-6 0-18-8-26-17zm1212-803c0-5 5-10 10-10 6 0 10 5 10 10 0 6-4 10-10 10-5 0-10-4-10-10zm700-280c0-5 7-10 16-10h15l-6 10c-3 6-10 10-16 10-5 0-9-4-9-10zm340-1v-10l10 6c6 3 10 8 10 11 0 2-4 4-10 4-5 0-10-5-10-11zm-130-79c0-6 7-10 15-10s15 2 15 4-7 6-15 10l-15 5v-9z"/></g><g fill="#694e41" transform="matrix(.1 0 0 -.1 0 300)"><path d="M445 2973c-3-16-12-35-20-43-7-8-16-26-20-39l-7-24 11 7 11 7v-12c0-13-59-109-67-109-2 0-1 6 3 13l8 12-17-14c-9-7-17-20-17-28s-13-45-30-83l-30-67-27-30c-16-17-47-68-69-114-51-103-56-116-58-154-1-17-5-35-8-41-6-9-16-103-18-163v-13l-12 5-13 4-1-51c-2-66-14-117-31-134l-13-14 1-26c1-32-4-52-14-70l-8-12 15-16 16-15-15-29-15-29V0h3000v2991l-13 5c-7 2-109 3-227 2l-215-3 21-20c28-26 50-92 63-190l11-80-1-116c-1-65 2-122 5-128l7-11h-14c-18 0-47 32-47 52v16l-19-5-18-5-22 46c-11 25-21 52-21 60s-4 17-9 20l-8 5 1 66 1 65h-8c-4 0-6 4-3 8 2 4 1 14-5 22l-9 15v-47c0-25-3-53-6-62l-6-16-9 6-9 5v79h-20v19c0 10 7 31 15 47l14 28 7-17 6-17 8 5 8 5-4 43c-3 23-7 57-10 75l-5 32h-58l11-32c6-18 12-51 15-73l3-40-15-20-16-20-8 14-9 13 5-108 5-109-18-21c-11-11-32-24-47-28l-29-7 7 11 6 10h-111v28l-57 5c-85 8-97 11-105 23l-7 11-53-10-53-10-19-16-18-16-44 1-44 1-1-16c0-9-2-25-5-36-2-11-7-40-11-65l-8-45 7-74 8-74 22-36c12-20 42-59 66-88l43-52 30-6c16-4 29-11 29-15 0-12 74-45 205-91l110-39 9-19 9-20 21 14 21 14 23-6 23-6 15-26 15-26-5 30-5 31 9 14 9 14 19-18 20-17 7 11 7 11 13-11 13-11-5 19-4 19 30-5 31-4v-23l24 30 24 30 8-19 7-18-14-8-13-9 18-20 18-20-7-52-7-52-10 14-9 14 5-20c3-11 10-40 16-63 6-24 12-76 13-114l1-70-17-13-17-12v-19c0-30-12-64-21-64h-9v50h-20l5-22 6-23-15-60-15-60 1 58 2 57-10 10-9 9-2-26c-1-33-20-70-53-107l-25-28 25 7 25 8-17-20-18-20v-26c0-14-5-38-10-54l-10-28 16 20 15 20-7-30c-4-16-20-46-36-65l-28-35 10-3c14-5 12-23-2-21-7 1-18 1-24 0l-11-1 3-28c2-15 1-35-2-44l-5-18h-48l-11-19-10-20 11-6 10-7-18-18-18-17-12 5-13 4-1-18c-1-11-1-26 0-35l2-17-25-6c-13-3-31-9-40-12l-16-6-10 26-10 27 24 49c25 53 42 121 37 155-2 11-12 38-23 59l-20 40-10-18-10-17-13 11-14 12-9-6-10-6-7 23c-4 12-6 26-6 31 2 11-49 66-61 66h-9l11-20c6-11 17-20 24-20 8 0 16-7 20-15l5-15h-14c-7 0-17 5-20 10-3 6-11 10-16 10h-10l6-19 6-20-33 15c-18 8-41 20-50 25l-18 9v-29l-14 5-14 5-7 100-7 99-29 15-29 16v-30l-19-10-19-11-16 26-17 25-10-7-10-6 12-14 12-15-11-11-12-12v34h-22l6-32c8-39 15-47 26-28l10 15v-55l-25 6-25 6-27-17-26-17 6 15 6 15-27-4c-15-2-51-7-79-10l-52-7-47 13-46 13-11 19c-7 10-17 18-24 18s-13 5-13 10c0 18-22 10-27-10-6-23-23-27-23-6 0 8-6 16-12 19l-13 4 24 27 24 26h-9c-6 0-15-5-22-12l-12-12v9c0 5 10 19 22 32l21 23h-11c-7 0-12-4-12-9v-10l-47 27c-27 14-49 29-51 33s-12 0-23-9l-19-17-29 3-29 3-31-38c-38-46-41-66-3-28l27 27 5-33c3-19 4-47 1-62l-3-28-17 7c-9 4-27 8-41 9s-31 3-39 4l-13 1 11 14 12 14-10 6-10 6-13-19-14-20-22 6-22 5 11 14 12 14-7 7-7 7-39-42-40-42v13c0 7-5 18-12 25l-11 11-18-9-18-10-6 20c-3 11-10 20-15 20-13 0-47-61-56-100-9-41-9-134 0-148l6-10-21-26-21-27-14 5-13 5-11-17-11-17 6 135c3 74 8 149 11 165 2 17 6 48 8 70l3 40-9 18-9 17 16 104c8 57 15 135 15 173v70l19 54c11 30 34 81 50 113 17 32 31 65 31 72 0 8 3 14 8 14 4 0 16 28 26 63 11 34 23 66 28 72l8 9v-45l10 6 9 6 18-10c10-6 45-14 78-19l60-10 60 8c93 12 147 27 218 60 36 16 70 30 75 30s31 20 56 43l46 44v15c0 9 9 44 20 78l20 63v108l10 20c13 23 10 23-35 5l-34-15-6 19-6 19-13-5-14-5-7 28-7 28-10-21-10-22-32 33c-35 37-60 47-127 50l-46 3-36 16c-19 10-49 18-67 18l-32 1-9-14-9-14-6 23-6 22h-29c-35 0-43 11-24 36l14 19 1 27c0 15 4 29 9 33 8 4 41 62 41 71 0 1-134 3-299 4H452l-7-27zm435-36v-8l-10 6c-5 3-10 14-10 23v17l10-15c5-8 10-19 10-23zm1977-139-5-13v50l5-12c2-7 2-19 0-25zm-1990-10-5-13v50l5-12c2-7 2-19 0-25zm2024 5c-12-20-14-14-5 12 4 9 9 14 11 11 3-2 0-13-6-23zm-126-3-6-20h9c5 0 12 9 15 20s10 20 16 20h11v-69l-26-38c-14-21-26-38-27-40-1-1-1 17 1 39l4 40-11 8-12 7 10 26c12 31 25 37 16 7zm-1955-35c0-8-2-15-4-15s-6 7-10 15l-5 15h9c6 0 10-7 10-15zm2050-16-24-21-4 12-4 12 13 9c8 5 21 9 29 9l15-1-25-20zm-2500-3c0-3-4-8-10-11l-10-6v10c0 6 5 11 10 11 6 0 10-2 10-4zm2380-36c0-5-5-10-11-10h-10l6 10c3 6 8 10 11 10 2 0 4-4 4-10zm-1995-30 6-10h-10c-6 0-11 5-11 10 0 6 2 10 4 10 3 0 8-4 11-10zm1725 1c0-6-4-13-10-16l-10-6v15c0 9 5 16 10 16 6 0 10-4 10-9zm-43-33-5-13-1 19c-1 11 2 17 5 13 3-3 4-12 1-19zm-1677 2c0-5-5-10-11-10h-10l6 10c3 6 8 10 11 10 2 0 4-4 4-10zm310-144 45-13v-28l-72-3-73-3v8c0 4 3 18 6 31l6 22h22c11 0 41-6 66-14zm1745-28c-2-18-3-37-4-43l-1-9-16 15-15 16 12 26c7 15 15 27 19 27h8l-3-32zm35-38c0-5-5-10-11-10h-10l6 10c3 6 8 10 11 10 2 0 4-4 4-10zm-1697-15c20-8 22-28 5-43l-13-10H940l-5 8-6 9 20 11c28 14 132 38 156 35 11-2 28-6 38-10zm1394-47-5-13-1 19c-1 11 2 17 5 13 3-3 4-12 1-19zm-117-61v-8l-10 6c-5 3-10 14-10 23v17l10-15c5-8 10-19 10-23zm110 7c0-8-4-14-10-14h-10v41l10-6c6-3 10-13 10-21zm-255-95c19-12 35-25 35-30 0-15-13-11-52 16-21 14-41 25-45 24s-14-1-21 0l-13 1 7 11 6 11 24-6c13-4 39-16 59-27zm145 0v-20l-10 6c-5 3-10 13-10 21s5 14 10 14h10v-21zm283-45-6-49-9 30-8 30 12 22c16 32 19 24 11-33zm-243 15v-10l-10 6c-5 3-10 11-10 16v10l10-6c6-3 10-11 10-16zm266-234 39-34-21-1h-22l-23 18c-22 18-35 52-20 52 4 0 25-16 47-35zm-49-45 13-19-14 5c-8 3-17 12-20 20l-5 14h7c4 0 13-9 19-20zM76 1829c-3-20-24-55-29-49-3 3 0 26 6 53l12 47 7-19c3-10 6-25 4-32zm2658 35 6-16-12 4c-6 2-14 10-16 16l-4 12h10c5 0 13-7 16-16zm-2144-4c0-5-2-10-4-10s-12-3-20-6l-16-6 6 16c7 17 34 22 34 6zm40-100c-6-11-13-20-16-20-2 0 0 9 6 20s13 20 16 20c2 0 0-9-6-20zm-18-72-12-12v10c0 14 12 26 19 19 2-3-1-11-7-17zm60-50-12-12v48l12-12 12-12-12-12zm606-204-12-26-4 11c-5 16 5 41 17 41h11l-12-26zm1329-31-5-18v60l5-12c2-7 2-21 0-30zm-1373-8c-7-17-20-20-28-6l-6 9 12 5c7 3 16 6 20 6l7 1-5-15zm1296-53v-28l-15-20-14-19 4 20c16 82 25 99 25 47zm-690-17v-35h-20v19c0 21 10 51 16 51 2 0 4-16 4-35zm730 3v-32l-10 10-9 9 5 23c9 31 14 27 14-10zm-773 0-6-22 11-13 11-14-11-11-12-12v39l-10-15c-16-26-18-6-3 33 17 40 29 50 20 15zm94-75-10-18-1 31c0 17 3 34 8 38l7 8 3-21c2-11-1-28-7-38zm-412 14c25-8 78-20 116-27 73-13 94-21 117-43 7-7 30-21 52-31l38-18-4-49-5-49 18 5 19 6v-10c0-18 18-12 23 7l4 17 11-28c7-16 12-40 13-55v-27l16 33 17 32h11c14 0 37-25 56-60l13-25 3-70c2-38 4-83 6-100l2-30 22-24c11-13 27-34 33-47l13-22-8-38-7-38-8 14-8 13-11-22-12-21 6-11 7-10-12-15-13-14-14 11-14 12-14-19c-8-10-15-29-15-41v-23h-30v-38l-20 5-20 5v-9c0-5 5-14 11-20l11-11-11-6-11-7v15c0 9-4 16-10 16h-9l6 17 7 18-17-14-17-13v27l-8-11-7-11-45 1-45 1-7 10-8 10v-86l-9 6c-5 3-13 20-16 37l-7 32-13-18-13-17-5 8c-2 4-8 22-12 38l-7 30-5-13-5-12-10 6-10 6 11-20 11-21-20-11-20-11v21h-33l16-18c25-28 20-34-13-17-36 19-41 19-34 0l6-15h-9c-5 0-16 12-24 26l-13 26-22-26-22-25-8 17c-4 9-6 22-4 27 6 21-1 100-9 108l-9 9-7-21c-3-11-4-25 0-31l6-10-11-20c-6-11-17-20-24-20-8 0-20-9-27-21l-14-20-18 7-19 7 11 6 10 7-10 14-9 15-9-15-10-14-7 17-6 17-32 1h-31l23 9c24 10 29 25 10 36l-11 7-13-17-12-17-11 18-10 18-1-32c0-18-2-33-4-33-3 0-18 12-33 26l-28 26-3-16-3-16h-15c-27 0-29 1-26 17l3 15-10-7c-6-3-11-15-11-25v-19l-19 2-19 1 5 13c3 7 2 25-3 41l-7 27-7-30-7-30-13 28c-14 29-30 36-30 12v-14l-17 6c-10 4-22 11-26 17l-9 11-5-12c-2-7-10-13-16-13h-12l3 50 4 50h-22v-44l-15 20-14 19-1-13v-13l-10 6-11 7 9 11 9 12-11 30-11 30-12 1c-29 2-33 5-33 19 0 18 20 20 21 3v-13l8 20c4 11 11 33 15 49l7 29-15-12c-9-8-16-21-16-31v-18l-20-5-21-5 6 18 6 18-14 14c-8 7-16 26-19 41l-5 27 12 10 12 10 18-6 18-7-5 14c-3 8-10 13-16 12l-11-3 5 13c2 7 14 17 27 22l22 10 1 15c1 8 5 25 9 37l7 23 9-6 9-5 14 31 13 32 6-16 6-16h18c10 0 25 6 34 13 16 13 53 97 42 97-4 0 6 13 21 29l28 29 13-4 13-5 16 23 17 23 9-15 9-15 21 13 21 13 10-7 11-6-11-11c-6-6-11-20-11-31v-21l24 50c14 28 34 59 46 70l21 19 8-13 8-12 14 13c8 7 30 20 49 29l35 16 54 2 54 2 46-14zm1098-12c-4-8-11-15-17-15h-11l11 21c13 23 26 19 17-6zm-1557-80c0-2-9-9-20-15l-20-10 6 15c5 13 34 22 34 10zm-503-67-5-13-1 19c-1 11 2 17 5 13 3-3 4-12 1-19zm353-58c0-5-4-10-10-10-5 0-10 5-10 10 0 6 5 10 10 10 6 0 10-4 10-10zM681 827l-11-11v34h-10c-5 0-10 7-10 16v15l9-6 10-5 8 12 8 13 3-29 4-28-11-11zm-11-37-11-21-10 6c-5 4-9 13-9 21v14h41l-11-20zm1336-315c17-16 14-18-10-9-9 3-16 10-16 15 0 13 9 11 26-6zm-736-77v-10l-15 12c-8 7-15 14-15 16s7 1 15-2c8-4 15-11 15-16zM98 338c-13-81-18-89-12-24 4 53 10 76 18 76 2 0-1-24-6-52zm1292 3c0-6-4-13-10-16l-10-6v15c0 9 5 16 10 16 6 0 10-4 10-9zM830 909v-10l10 6c6 3 10 8 10 11 0 2-4 4-10 4-5 0-10-5-10-11zm1030-20v-10l10 6c6 3 10 8 10 11 0 2-4 4-10 4-5 0-10-5-10-11zm-449-55 1-19 5 13c3 7 2 16-1 19-3 4-6-2-5-13zm349-383c0-5 5-13 10-16l10-6v10c0 5-4 13-10 16l-10 6v-10zm535 2539c3-5 8-10 11-10 2 0 4 5 4 10 0 6-5 10-11 10h-10l6-10zm15-30c0-5 5-10 11-10h10l-6 10c-3 6-8 10-11 10-2 0-4-4-4-10zm26-43c3-10 9-15 12-12s0 11-7 18l-12 12 7-18zm204-198v-10l10 6c6 3 10 8 10 11 0 2-4 4-10 4-5 0-10-5-10-11zm25-29-6-10 15-22 16-22v16c0 9-5 20-10 23l-10 6 5 10c4 5 4 9 1 9s-8-4-11-10zm-1193-758c-13-15-37-36-53-47l-30-20-17-35c-9-19-22-41-30-49l-13-14 5-14 6-15-20-5-20-5v-18c0-9 9-25 20-35l19-17 48-5 48-6 48-30c26-17 56-33 65-36 27-7 112-5 169 4l53 8 74-27 74-27 29 3 28 3 14 29 13 29-16 9-16 9 15 22c21 30 19 42-11 74-14 15-46 58-71 96l-46 67-16 1c-9 0-40 2-70 5l-55 4-22 15-23 15h-82l-22 14c-12 7-33 16-47 19l-26 6-22-27zm1058-47c0-16 34-85 42-85 5 0 7 3 5 8-2 4-11 24-21 45-15 33-26 46-26 32zm102-237c2-20 6-34 10-32 3 2 9-4 12-13 3-10 3 0 1 21-2 22-9 44-15 50l-10 10 2-36zm-1116-165c-10-10-7-21 8-26l14-6 6 14 5 13-14 5c-7 3-16 3-19 0zm344-27c0-2 7-6 15-10l15-5v9c0 6-7 10-15 10s-15-2-15-4zm-400-26c0-5 4-10 9-10 6 0 13 5 16 10l6 10h-15c-9 0-16-4-16-10zm555-80-6-10h10c6 0 11 5 11 10 0 6-2 10-4 10-3 0-8-4-11-10zM699 1178c0-2-3-16-5-31l-5-29 12 4 12 4 2 22c1 13-2 25-7 28-4 3-8 4-9 2z"/></g><g fill="#42342d" transform="matrix(.1 0 0 -.1 0 300)"><path d="M451 2937c-6-35-11-77-11-93v-29l-9 13-8 13-16-25c-10-14-17-28-17-31 0-4-7-13-15-21-17-17-20-44-5-44 5 0 12 11 16 25l6 25h28l-1-12c-1-22-13-43-42-78l-29-34-9 15-9 14v-34l-19-11c-11-5-23-20-26-32-4-13-18-35-32-50l-25-26 6-10 6-9-20-18c-11-10-20-22-20-26 0-5-13-36-30-70-16-34-27-65-25-69 3-5 1-10-4-12-6-1-12-19-14-38-3-19-8-59-12-87l-8-53h23l-1-22v-23l-9 20-8 20-5-15c-2-8-9-31-16-51-6-19-11-41-11-48v-13l16 13 16 13 8-15 9-14-6-25c-3-14-9-27-14-30-4-3-10-31-14-62l-7-58-31-47c-17-27-37-59-44-72l-13-23v-77c0-43 3-81 6-84l7-6 25 19c14 11 27 19 28 17 8-8-22-55-41-63l-20-9-3-737L0 0h3000v999l-10 6c-5 3-15 15-21 27l-11 20 21-7 21-6v351h-8c-5 0-13 16-19 35l-11 35 9-6 9-5v10c0 5-4 12-9 15s-11 20-13 38l-5 33 11 18 11 18-14 8-14 9 7 18 7 17 10-10 10-10 3-61c1-34 6-65 9-69l7-7v699l-1 698-14 28-15 28-20 6-20 6-16 31c-18 36-24 34-17-6l6-29 28-16c16-9 29-19 29-23 0-13-17-9-30 7-7 8-19 15-26 15h-14v15c0 8-5 26-12 40l-11 25h-55l-6-12-6-13-6 13c-3 6-10 12-14 12h-9l11-31 11-31 7 12 8 13 7-34c5-19 7-54 6-79l-1-45 9 14 9 14-3 41c-1 23-6 58-10 79l-7 37h20l6-34 7-34 14-12 15-12 1-22v-21l10 23 9 23 11-7 11-6-6-29-5-28 14-28c8-15 15-34 15-41v-13l-10 6c-15 9-13 1 19-61l30-56-12-12c-14-13-32-15-43-3-4 4-11 7-16 7h-8l6-26 7-27-9 6-10 6 3-37 3-37-9 20-10 20-1-15c-1-8-2-22-1-32 1-9-3-19-9-23-5-3-10-12-10-18v-12l10 15 10 15v-35h10c6 0 10-7 10-15 0-20-15-19-36 2l-17 17 5-32 5-32h-8c-5 0-14-18-20-40l-12-39-8 5c-5 3-9 19-9 36 0 41-7 33-13-14l-5-38h28v-15c0-17-9-19-28-6l-14 8 3 45c2 24 0 49-4 54l-6 11 10 54c6 30 10 74 9 99l-1 45 16 20 15 20-6-42-7-43h33v30l25-6 25-6v33l-10-6-10-6v13c0 8 5 19 11 25l10 10-4 49-4 49-7-22-8-23h-49l7-22 7-23-15 12-15 13-15-13c-8-6-22-23-31-36l-16-25-19-3-19-2 5 71 4 70-11-6-11-7-1 13c-2 39 2 131 9 188l7 65 13-24c12-20 18-56 22-121l1-15 10 19 11 18-5 37c-3 20-8 44-12 54l-7 17 16-6c9-3 16-12 16-20s5-14 10-14c16 0 11 18-13 43l-22 24-72 1-73 2v-22c0-13 7-31 15-42 8-10 17-38 21-62l6-44h20l-6-35-7-35 15-6 16-6-11-19-10-19-1-103c-1-56 1-121 6-144l8-41-23-12-22-12 5 13 6 14-27 30c-14 17-38 37-53 44l-28 14v14c0 8-7 24-16 37l-15 24-32-9-31-9-8 13c-4 6-8 21-8 32l-1 20-11-20c-19-33-35-45-60-45-13 0-29-5-36-12l-12-12v19l-9-14-9-14-23 22-23 21h-47l6 10c3 6 5 10 3 11-2 0-39 3-83 6l-80 5-11 9-11 9-19-6c-11-4-26-13-36-21-14-13-33-19-60-22-5-1-8-5-8-11v-10l25 10 25 10-16-24c-8-14-22-27-30-30l-14-5v30l-17-16-16-17 14-9c19-12 33-11 47 3l12 12v-32l18 5 18 4 18-20 18-20-6-10-6-9-34 2c-18 2-38 6-45 10l-12 8-14-12-15-12v32l-19-12-20-12-6-61-7-61 17-40c20-49 68-100 120-126 22-12 59-38 82-58l43-37 82-31c91-33 175-58 226-66l34-6 5 20 5 19 17 5c9 3 29 3 45 1l30-4 23 22c13 12 29 31 35 42l11 20-16-14-17-13v42h-19l5-14 6-15-19 2c-10 1-29 12-43 25l-24 23 28-5 29-5-23 25-24 24-8-12-8-13v14c0 7-11 26-25 43-14 16-25 36-25 44v15l-10-6-10-6-7 17-6 16 16 10 17 9v87l14 11 13 11 7-64c7-67 15-89 54-144l24-32 9 5 9 6v73l-9-9c-5-6-12-19-15-30s-3 0 0 25c2 25 4 60 4 79 0 18 4 39 9 45 4 6 12 25 16 41l7 30 12-33 11-33 8 7c4 4 7 21 7 38v31l9-15c6-8 7-18 5-22-3-4-1-8 5-8h10l-9-31c-5-18-8-35-5-38 2-4 0-13-5-21l-9-14 12-15 12-15-13 8-12 7-6-15c-3-9-10-14-14-11s-10-2-14-10l-5-15h19l-10-25-10-25 9-23c5-13 16-29 25-36l16-13v-48h11c6 0 25-11 43-25s35-25 38-25c2 0 5 45 6 99l2 100 14 32 14 32 5-19c6-24 3-88-8-138l-8-39 11 7 11 7 7-59 6-59 30-32c33-35 32-49-2-31-29 16-33 9-15-26 8-16 15-35 15-41v-13h-13c-7 0-18 9-25 20l-12 20h-16c-9 0-24 10-33 22l-18 21 1-39 1-39 13-13 12-14-4-106c-2-59-9-127-14-152s-10-89-11-142l-2-98h11c5 0 10-4 10-10v-9l-15 5-15 6v-32h15c8 0 15-5 15-10 0-6-5-9-12-8l-12 3-8-54-8-55-29-45c-16-25-32-62-36-81-9-44-23-70-36-70h-10l6 21 7 22-10-7-11-6-7 11-7 12 12-7 12-8-7 39c-3 21-11 43-16 48l-10 10 4-32 4-32-10 2c-6 1-14 6-18 11l-6 9-20-44c-11-24-22-53-25-64l-5-20-1 22c0 12-5 25-11 28l-10 6-1-23c-1-13-3-43-4-68-2-25-3-46-4-48s-8 4-17 13-19 13-22 10c-4-3-1-9 6-13 6-5 13-19 14-32l3-24-33-9-32-10 5-18 6-18-11-21-11-20h29l-5-20-5-20h26l-22-16c-12-8-22-19-22-24v-9l18 5 17 6-26-23c-15-13-36-40-48-60l-21-37-20-5-20-5v-17c0-9-7-23-15-32l-16-15-14 12-15 12v-11c0-6 5-11 10-11 6 0 10-7 10-16v-16l-15 12-15 12v-34l-12 4c-7 3-14 14-16 26s-7 22-12 22h-9l6-34 5-35-22 6-23 6 6-10 6-9-20-17-20-18-14 15-15 15 6 15 6 16h-62v-12c0-7-4-19-9-27l-9-14-36-2-36-3v23l-18-28c-10-15-21-24-25-21-3 3-3-3 0-14l5-21-17 3c-9 1-21 9-26 17l-9 14-18-23-17-23-13 13c-6 6-12 22-12 34s-3 30-6 38l-6 17-14-12c-8-6-14-16-14-21v-9l10 6 10 6v-10c0-14-17-14-25-1-3 5-11 10-17 10h-10l5-14 6-14-14-6-13-5-5 13c-3 7-15 16-26 19l-21 5v-9c0-5-6-9-14-9-7 0-19-6-26-14l-12-15-24 11-24 11v28l-20-6-20-6v13l-1 13-14-19-14-19-7 18-7 18-22-27-22-28-7 35-7 35-30 11-30 10-20-12-20-12-19 23-19 22-6-10c-3-5-13-10-21-10s-24-9-36-20l-21-19-9 5-8 5v-18l-25 5-25 4v-6c0-4 5-16 10-27l11-19h-8c-9 0-63 55-63 65v6l10-6 10-6v10c0 6-4 11-10 11h-10v34l-12-12c-18-18-27-15-38 13l-10 25h-16c-9 0-23 8-29 17l-13 18-19-17c-10-9-30-19-46-22l-27-5 18 24c19 27 32 32 32 13v-12l9 10c5 5 11 27 14 49l6 40-14-32c-18-39-24-42-18-9l5 23-23 6-23 6-12-10-12-10-8 13c-5 7-7 24-6 38l3 25-15-18-14-19-4 24-4 23 14 23 15 22-17-6-17-7 7 27 6 26-16-6c-9-3-16-10-16-15s-4-9-10-9h-10v42l-16-6-16-6 3 28 3 27-13 23-12 22 7 11c3 6 8 49 10 97 3 48 7 107 9 132s4 49 4 53l1 8 13-7 12-7-18 21-19 21 7 11 6 10 10-5 9-6v43c0 24 4 58 9 76l10 33-15 6-15 6 6 61c3 33 7 111 9 171l3 110-8-28c-6-24-17-181-19-274v-33h-9c-5 0-12 13-16 30l-6 30-12-3-11-2-4 17-3 18 15-6 16-6v71l-10 6-10 6v87l-12 4-13 5 13 27c6 15 12 45 12 67v40l-17 6-16 6 20 8 19 7 13 42c7 22 21 50 32 61l19 19v20c0 12 7 32 16 45 26 40 9 29-53-32-32-32-62-57-66-55-5 1-16-3-25-10l-16-13 37 58c20 31 37 64 37 72 0 7 5 17 12 21l11 7-5-21-6-22h11c6 0 42 31 79 69l68 70v23l-1 23-18-22c-11-13-22-23-26-23s6 15 22 34c17 18 40 54 53 80 12 26 29 50 37 53l14 5-6 18-6 18 18-2 17-1 15 30 16 30 6-40c3-22 7-35 8-30l1 10 9-14 9-14 74-13 73-13 15 20 15 19 75 14c81 16 94 14 64-9-28-21-7-18 30 4 17 10 48 22 68 25l37 7 8 13c5 8 19 16 32 18l24 3 30 37 29 36-7 12-7 11-24-16-24-15v22l-15-5-14-6-20 28-20 28 6 7 7 7-17-7-17-6v44l-13-11-13-11-12 12-12 12v-12c0-6 9-16 21-23l21-11-10-10-10-10-21 12-22 11-87 4-87 4 51-9c28-5 63-14 78-19l26-11v-39h-27c-16 0-66-4-113-9s-110-9-140-8l-55 1v39l80 28 80 27-67-6-68-6-15 13c-8 7-15 21-15 32v19l10-6 10-6v10c0 24 81 46 190 53 8 1 21 9 27 19l13 17 42 1c64 2 162 8 168 11 3 1 22 2 43 2h38l-7 36c-9 48-14 53-14 14 0-40-8-40-40 1l-25 31 20-7 20-7-24 20c-13 11-27 20-33 20h-9l7-12 7-11-12 7c-6 4-9 11-7 15 3 4-6 17-19 29l-24 21-6-8-5-9-23 3c-29 4-61 16-68 28l-7 9-47 2-48 1-5-18-5-18-9 3c-5 2-10 8-10 13 0 6-4 16-10 22l-10 13-10-6-9-6-12 10c-7 5-22 12-34 15l-23 5v-9c0-5-4-9-10-9-5 0-10 6-10 13 0 18-24 67-32 67h-8v-88l-13-31c-7-17-16-29-19-25-4 3-9-4-13-16l-7-22-18 5-18 5-6-39-6-38-15-14-15-15-20 5-20 5v-29l-25-11-25-12v9c0 5 7 14 15 21 18 15 20 37 3 42l-12 4 8 12c4 7 12 12 17 12h10l-7-11-7-12 14 5 14 5 3 51 3 52h20l-3 17-3 17 20 10 20 11-2 40c-2 42 1 39 12-10l7-30 18 39 17 39 6-14 5-14 1 24 1 25 15-20 14-19 1 23v23l-14 5-14 5 5 40 6 39h-23v-17l-1-18-18 23-19 22h-92l3-11 2-11-18-3-19-3 6 14 5 14h-38l-15-22c-9-12-22-23-30-24l-15-2 16 24 15 24h-54l7-30 7-30-32-41c-18-22-35-37-38-34s0 11 6 17c7 7 12 20 12 29 0 10 5 19 10 21l10 3 4 33 5 32h-87l-11-63zm372-20c-8-44-10-44-15 1l-3 40 12-5 12-5-6-31zm-156 18c-2-5-10-11-19-13l-15-3v30l19-2 18-1-3-11zm1993 1c0-3-4-8-10-11l-10-6v10c0 6 5 11 10 11 6 0 10-2 10-4zm-2065-17-7-10 21-6 22-6-16-17-15-17 6-31c4-18 11-32 16-32h9l-6-10-6-10h10c20 0 41 13 41 25v13l20 5c23 6 24 4 10-21-5-9-14-30-20-45l-10-28-9 5-9 6-12-15c-7-8-9-15-5-15s-7-13-25-30c-34-32-51-40-30-15l12 15-5 14-6 14-57-28-57-28-4-23-4-24 13 13c6 6 20 12 30 12h18v20h20c30 0 24-16-16-39l-35-21h-58l-14-15c-8-8-17-11-21-8-11 12-6 23 12 23 9 0 24 5 32 10l15 10-13 9-14 8 10 37c6 20 8 36 6 36-3 0 7 12 21 28 14 15 27 34 30 42 5 17 65 56 65 43 0-4-13-16-28-27-31-20-75-82-70-97l3-10 40 30c22 16 47 36 56 44l16 14 17-9 16-9v21c0 11-4 20-8 20-9 0-10 3-13 58l-2 33-11-11c-22-22-24-8-5 25 12 19 23 35 26 35 2 0 1-5-2-11zm115-43c0-8-5-18-12-22l-11-7 6 16 6 16-12 5-12 4 18 1 17 1v-14zm-166-38c-3-4-9-8-15-8-5 0-9 4-9 8 0 5 7 9 15 9h14l-5-9zm-70-38-19-19-14 8-14 9 29 15c36 19 44 13 18-13zm551-40 6-10h-15c-9 0-16 5-16 10 0 6 4 10 9 10 6 0 13-4 16-10zm-339-57-16-28 6 30c4 17 9 34 12 40l6 9 3-11c3-7-3-24-11-40zm429 27c10-11 16-20 13-20s-13 9-23 20-16 20-13 20 13-9 23-20zm-65-25 12-15h-8c-5 1-20 7-34 15l-25 14 21 1h22l12-15zm-200-30c0-8-4-15-10-15h-9l5 15c4 8 8 15 10 15s4-7 4-15zm-197-45c-3-10-11-21-19-24l-14-6 10 20 11 20-6 10-6 10 14-6 15-5-5-19zm214-2-5-13v50l5-12c2-7 2-19 0-25zm123 27c0-2-10-10-22-16l-23-12 14 16c13 16 31 23 31 12zm1857-17-5-13-1 19c-1 11 2 17 5 13 3-3 4-12 1-19zm-2021-55-5-58-17-33c-25-51-27-32-5 47l20 72-6 14-5 15h23l-5-57zm-266 7c0-5-2-10-4-10-3 0-8 5-11 10l-6 10h10c6 0 11-4 11-10zm-31-29c-15-5-22 6-14 19l8 12 8-13 8-14-10-4zm-44-21c-3-5-12-10-18-10h-12l15 10c19 12 23 12 15 0zm2472-62-5-13v50l5-12c2-7 2-19 0-25zm-867-8c3-4 29-13 58-20 28-8 52-17 52-20 0-4 12-12 26-19l26-11-11-14-11-13 6-17 6-17 18 6 18 6 6-17 6-17-10-12c-5-6-7-15-4-18 11-10-67 5-146 29-41 12-67 23-56 23l18 1-6 16-6 15 9-6 10-5 35 16 35 17-5 9-5 8h32l-6 10-7 11-14-12-14-11-15 6-15 5v36l-9-14-9-14-18 17-17 18-21-7c-12-3-27-7-35-8l-14-2-4 15-5 15 10-14 10-14 10 7 11 7-6 15-6 16 34-7c19-4 36-11 39-15zm447-12-5-13v50l5-12c2-7 2-19 0-25zm-1774-54-18-28 18 7 17 6v-8c0-4-12-18-26-32-14-13-32-39-39-56l-14-33h-25l12 12c7 7 12 16 12 21v9l-15-6-15-5v8c0 5 19 25 43 46 23 20 35 34 27 30l-15-8 13 14c6 7 12 20 12 29s6 22 12 28l13 13 3-10c2-5-5-22-15-37zm57 32c0-2-7-9-15-16l-15-13 6 17c5 14 24 23 24 12zm2080-47v-20l-10 6c-5 3-10 13-10 21s5 14 10 14h10v-21zm40-75c0-7-10-20-22-28l-21-15-13 17c-7 9-10 20-7 25l4 7 10-6 9-5-1 8c-1 4-1 17 0 27l1 19 20-18c11-10 20-24 20-31zm-452-36-3-23-13 23-13 22 13 14 13 14 3-14c2-8 2-24 0-36zm-2278 12c0-5-5-10-11-10h-10l6 10c3 6 8 10 11 10 2 0 4-4 4-10zm2005-26c17-4 47-18 68-31l37-23v-50h-10c-6 0-18 4-28 9-9 5-48 22-85 37s-70 31-73 36l-6 9 18 14 19 14 15-4c8-2 29-7 45-11zm-2011-27c-3-9-10-17-15-17-11 0-12 34-2 44l7 6 8-8 9-9-7-16zm1876-67c0-5-4-10-10-10-5 0-10 5-10 10 0 6 5 10 10 10 6 0 10-4 10-10zm-1400-20c-8-5-19-10-25-10h-10l15 10c8 5 20 10 25 10h10l-15-10zm1375-48c-3-3-11 0-18 7l-12 12 18-7c10-3 15-9 12-12zm-1345-7c-7-9-15-13-17-11-7 7 7 26 19 26h10l-12-15zm-141 2c-2-1-13-9-24-17l-20-15 14 18c7 9 18 17 24 17s8-1 6-3zm67-25-18-17 13 22c7 12 15 20 18 17 3-2-3-12-13-22zm34-75c0-2-10-12-22-23l-23-19 19 23c18 21 26 27 26 19zm2317-144-5-18v60l5-12c2-7 2-21 0-30zm3-85-1-53-9 16-9 16 6 36c8 52 13 46 13-15zm-259-40 12-23-16 14c-10 7-17 17-17 22 0 15 9 10 21-13zM50 1572c0-13-12-22-22-16l-8 5 5 10c8 11 25 12 25 1zm2835-125c-8-19-19-38-25-42-15-9-12 0 13 49 26 51 35 46 12-7zm-105 22c0-5-4-9-10-9-5 0-10 7-10 16v15l10-6c6-3 10-10 10-16zm54-104c-4-8-10-15-15-15h-8l5 15c4 8 10 15 15 15h8l-5-15zM566 1254l-5-14h19v-61l-10 6c-5 3-10 15-10 26v19h-10c-5 0-10-4-10-10 0-5-4-10-8-10h-9v55l24 1 24 2-5-14zm-529-29-18-13 11-7 10-6-7-12-6-11-8 20c-4 10-8 24-8 31l-1 12 18 3c25 6 30-2 9-17zm487-151 1-87-11-4-11-4 4 46 5 45-10 13c-5 6-13 27-17 46l-7 34 11-7 11-7v35l12-12 11-11 1-87zm-62-71c-6-15-13-37-15-48l-5-20-1 27c-1 31 17 84 26 75 3-4 1-19-5-34zm15-78c-4-8-11-15-17-15h-11l11 21c13 23 26 19 17-6zm47-34c-14-28-32-55-40-62l-14-11v11c0 7 5 21 10 32l11 19h-16c-21 0-19 13 5 35l20 18 6-6 7-7-9-13c-5-7 0-3 10 10 33 38 38 26 10-26zM389 783c-13-21-33-55-44-77l-19-38-4 12-4 11-19-17-19-17v12c0 6 7 14 15 17l15 6-2 17-3 16 24-3 23-4-6 10-6 10 15 12 15 13-6 19-6 19 21 6c12 3 21 10 21 16v10l6-6 7-7-24-37zm-39-18c-7-9-15-13-17-11-7 7 7 26 19 26h10l-12-15zm1980-50c-7-9-15-13-18-10-3 2 1 11 8 20s15 13 18 10c3-2-1-11-8-20zm115-15c-3-5-11-10-16-10h-10l6 10c3 6 11 10 16 10h10l-6-10zM260 605c0-1-9-10-20-20l-20-18 4 24c3 13 5 25 5 26 1 3 31-8 31-12zm280-28c0-8-9-22-20-32l-21-19 6 17c3 9 7 24 10 32 6 19 25 20 25 2zm-330-13c0-3-13-23-28-43-16-20-36-53-46-74l-17-37 7-11 7-11-12-8-12-7-1-61-1-61-8 5-9 5v-18l-1-18-10 18-11 19 7 44c10 70 41 149 80 209 32 48 55 68 55 49zM86 532l-18-17 12 23c6 13 14 21 18 18 3-4-2-14-12-24zm723-169v-28l-9 20c-12 27-12 35 0 35h10l-1-27zm96-23 6-10h-10c-6 0-11 5-11 10 0 6 2 10 4 10 3 0 8-4 11-10zm1039-20-10-10-1 22-2 21 12-12 11-11-10-10zM817 298l-5-13-1 19c-1 11 2 17 5 13 3-3 4-12 1-19zm446-15c-7-2-19-2-25 0l-13 5h50l-12-5zm1524-45-5-13-1 19c-1 11 2 17 5 13 3-3 4-12 1-19zm-1697-12c0-2-9-2-20 1s-20 9-20 15v9l20-11c11-6 20-12 20-14zm708-4 4-12-16 6-16 6v-16c0-9-4-16-10-16-14 0-13 18 3 35 14 16 29 15 35-3zM77 178l-5-13-1 19c-1 11 2 17 5 13 3-3 4-12 1-19zm1323 2c-8-5-19-10-25-10h-10l15 10c8 5 20 10 25 10h10l-15-10zM621 2743l-22-27-9 14-9 14-7-7-8-8 22-21 22-22v14c0 7 10 24 22 37s19 25 16 28c-3 4-16-6-27-22zm323 240c-3-10-10-26-15-35-5-10-9-33-9-52v-35l11-6 10-7 6 20c3 11 11 23 19 26l14 5v18c0 10 7 31 15 47 20 37 20 36-15 36h-31l-5-17zm1846-93c0-5 5-10 11-10h10l-6 10c-3 6-8 10-11 10-2 0-4-4-4-10zm62-15v-30l5 18c2 9 2 23 0 30l-5 12v-30zm-120-90v-30l5 18c2 9 2 23 0 30l-5 12v-30zm99-1 1-19 5 13c3 7 2 16-1 19-3 4-6-2-5-13zm-2069-49v-30l5 18c2 9 2 23 0 30l-5 12v-30zm2168-69c0-9 5-16 10-16 6 0 10 4 10 9 0 6-4 13-10 16l-10 6v-15zm-214-31-5-15h9c6 0 10 7 10 15s-2 15-4 15-6-7-10-15zm-1486-82v-18l8 10c4 6 11 13 16 18l9 7h-33v-17zm1460-540c0-12 5-25 10-28l10-6v13c0 7-5 20-10 28l-10 15v-22zm-40-61c0-5 9-17 20-27l20-18v32l-20 11-20 11v-9zm-1299-93c-11-12-23-35-26-51l-7-29 12-30 12-29h76l29 29 29 29-8 22c-4 12-17 35-29 51l-20 29h-48l-20-21zm-691 1c0-5 5-10 11-10h10l-6 10c-3 6-8 10-11 10-2 0-4-4-4-10zm1020-32c-14-5-33-20-43-34l-19-25 11-27c5-15 11-36 13-47l3-20 50-18 50-18 29 32 28 32-5 33c-7 42-35 81-67 92l-25 9-25-9zM22 1800v-25l5 13c2 6 2 18 0 25l-5 12v-25zm660-75v-30l5 18c2 9 2 23 0 30l-5 12v-30zm-56-31-6-15 9 6 9 5 5-12 5-13 1 23 1 22h-9c-5 0-12-7-15-16zm814-12c0-5-11-13-25-16l-25-6v-21l18 2c9 1 19 0 22-1s12-3 20-5l16-3-1 26v25l-12 5-13 4v-10zm180-30c0-13 23-32 39-32h14l-18 20c-19 21-35 26-35 12zm50-46c0-2 7-6 15-10l15-5v9c0 6-7 10-15 10s-15-2-15-4zm-504-225c-4-7-5-15-2-18 9-9 19 4 14 18l-4 13-8-13zm-216-71c0-5 5-10 11-10h10l-6 10c-3 6-8 10-11 10-2 0-4-4-4-10zm280-4v-14l-47-6c-27-4-65-9-85-12l-38-6-6 16-6 17-12-9c-6-5-21-11-32-14l-21-5 4 18 5 19-33-17c-41-21-59-24-59-12 0 15-27 10-33-5l-6-15 14 5 14 6-6-23-6-22 16 6 16 6 3-11 4-11 69-1 70-1 55 11c49 10 90 23 140 41 27 10 44 14 115 22l70 7-37 8-36 8-21-7-21-6v23l-17-13-16-14-4 13-5 12h-48v-14zm-465-25c-3-5-6-39-6-74l-1-65 11-18c6-11 11-15 11-10v8l17-13 17-14-23 38-23 38 8 27c4 15 6 34 5 44-1 9 3 19 9 23l10 6-5 10c-8 12-22 12-30 0zm746-15c2-2 36-9 75-15l70-11 58-28 57-29 55-57 55-56h16c9 0 31-11 49-25s39-25 48-25c8 0 18-5 21-10l6-10 10 5 9 6 17-16 17-17 12 16 11 16-8 45c-5 25-6 52-3 60l6 15h-10c-5 0-13-7-16-16l-6-16-35 26-34 26-9-17-10-16-11 21-11 21-15-5-15-6v34l-30-7-30-6-22 24-23 24-12-4-12-4-30 22-31 23-52 7c-57 8-174 12-167 5zm969-66c0-5 5-10 10-10 6 0 10 5 10 10 0 6-4 10-10 10-5 0-10-4-10-10zm-3-35-6-15h9c5 0 11-8 13-17l5-18-2 27c-2 33-11 44-19 23zm-6-51 1-19 5 13c3 7 2 16-1 19-3 4-6-2-5-13zm-1701-29c0-8 4-15 10-15h9l-5 15c-4 8-8 15-10 15s-4-7-4-15zm-37-33c-12-8-16-24-14-62l1-25 10 15 10 15v-39l11 11 11 11-8 34c-4 18-7 36-6 41 2 9 0 9-15-1zm1390-17c0-8 4-15 9-15 4 0 8 7 8 15s-4 15-8 15c-5 0-9-7-9-15zm-63-75c0-5 5-10 11-10h10l-6 10c-3 6-8 10-11 10-2 0-4-4-4-10zM1020 372v-42h32l-7 33c-4 17-11 36-16 42l-9 9v-42zm985-5c-4-10-5-21-1-24 10-10 18 4 13 24l-4 18-8-18zm-540-46-5-10 10-6 10-6v15c0 18-6 21-15 7z"/></g><g fill="#211c18" transform="matrix(.1 0 0 -.1 0 300)"><path d="M2600 2987c0-13 19-37 30-37 3 0 6 11 6 25l2 25h-38v-13zM467 2863c-4-3-7-11-7-17v-10l12 12c6 6 9 14 7 17-3 3-9 2-12-2zm438-93-6-10h32l-6 10c-3 6-8 10-10 10s-7-4-10-10zm-10-30-8-13 11 7 12 7v-10c0-5-4-11-8-13l-9-3 5-61 4-61 49 49 49 49-5 9-5 8-22-6-21-5-22 27-22 28-8-12zm342-31c7-7 15-10 18-7s-2 9-12 12l-18 7 12-12zm35-51c13-43 22-47 39-17l11 21-12-7-13-8-18 24-18 24 11-37zm1409 6 1-19 5 13c3 7 2 16-1 19-3 4-6-2-5-13zm-2011-5v-10l10 6c6 3 10 8 10 11 0 2-4 4-10 4-5 0-10-5-10-11zm291-39c-23-22-49-40-57-40h-14v-15c0-18 4-19 31-2 41 23 105 97 86 97-2 0-22-18-46-40zm-183-16-12-35-34-21-33-20 4-12 4-11-36-41c-20-22-42-49-49-60l-12-19 6 45c4 25 13 58 21 73l14 28-6 9-6 10 7 12c5 7 9 21 9 30l2 18-20-17-19-18-22 3-22 3-19-21c-10-11-23-20-30-20-14 0-98-42-119-60l-16-12 6-9 5-9-14 6-15 5-7-10c-3-6-11-11-17-11h-11l23 25c34 36 18 41-20 5-18-16-35-30-39-30s-12-12-19-27c-6-16-23-44-37-63l-26-34 2-21c1-11-3-39-9-61-7-23-14-67-17-98l-4-57 35 27c19 15 37 24 40 22 8-9-81-78-100-78h-16v-22c0-13-4-29-9-37l-9-13 5-19 5-19h39l-5-20c-3-11-9-29-12-40s-9-20-14-20h-9l10 32c5 18 9 34 9 35s-7 0-15-3c-8-4-15-12-15-20 0-14-4-23-34-81l-17-33h8c5 0 14 5 21 12l12 12v-9c0-6-4-16-9-24l-9-14-11 7-11 7v-41l-25-10-25-10 12-20c15-24 26-26 34-6l6 15 19-2 20-1-6-38-7-38 16 6 16 6v-11c0-6-5-11-10-11-6 0-15-12-20-26-6-15-19-38-28-53-24-34-21-79 2-48l14 18 6-16c3-8 3-22 0-30l-6-15h23l-6-10c-3-5-17-10-30-10H60l-16-25-16-25H0v-70l20 12 19 12-10 6-9 6 20 19 20 18-6 8-5 9h15c9 0 16 5 16 10 0 6 5 10 10 10 15 0 12-22-10-62l-20-37 18-10 17-10-23-31-23-31-6-35-6-36-18-11-19-12v-35h21l20 45c11 24 23 46 28 49s14 26 21 51 16 45 21 45h8l-4-37c-1-21-3-53-4-72l-1-33-15 12-15 12-7-18c-4-11-22-35-40-54l-33-35 1-538V0h91l-6 18-6 17 14-18 13-17h295l295 1-4 23-5 24 25-1h24l18-23 18-24h2047v8c0 5-13 21-30 37-16 16-30 35-30 42v13h31l-6-10-6-10 18-7c10-4 27-16 39-27 11-12 30-27 42-34l22-12h100v60h-25l12 8 13 8-1 454-1 455-10 13c-6 6-17 12-25 12s-24 12-37 27l-24 27 5 14 5 13 24-16c13-8 24-12 24-9 0 4 9-1 20-11l20-18v243h-19l1 42v42l-18 13-18 13 2 46 2 45-9-6-10-5-6 19-6 20 10 20 11 20-9 5-9 6-5-29c-7-35 2-101 16-119l10-13-11-11-12-12v18c0 9-5 27-11 38l-11 20-24-41c-13-23-25-50-26-59l-3-17 13 3c14 2 15-7 3-26l-8-14-6 16c-13 33-66 2-68-40l-1-19-5 13c-2 6-9 12-14 12-15 0-10-22 9-37 9-8 11-12 5-8l-13 6v-15c0-9-4-16-10-16h-10v-34l28-29 27-30-22 12-23 12-1-38c-1-21 0-42 1-48 2-5 3-17 4-25 1-9 5-21 9-27l7-12-9-6-10-6-16 31-16 31 7 55 6 54h-22l-2-52c0-29-1-61 0-70l2-18h-20v19c0 11-5 23-11 27l-11 7-9-14-9-14-1 15-1 15-13-30-13-30 5-26 5-25-16-13-16-13 6 31 7 31h-21l-5-30c-4-17-4-44 0-62l6-31-11 7-11 7 6 14 5 15h-11c-7 0-14-7-17-15l-6-15-9 6-9 5-22-22c-13-12-17-19-10-15l12 7v-9c0-4-9-17-19-29l-19-20 9-14c5-8 9-26 9-40v-26l-35-24-35-24 5-16 6-17-21-5-20-5-6 9-5 9-20-10c-10-6-19-15-19-21v-10l19 6 19 6 7-22 7-22-16-12-16-12v-55l-16 6-16 6 7-17c10-27 12-73 3-79-4-3-9-15-9-27l-2-22-7 40-6 40-9-20c-5-11-16-30-25-42l-16-21-12 19c-7 10-12 25-12 32 0 14 54 130 74 158 6 8-3 1-19-17l-31-32-23-69c-13-37-28-72-32-77-5-6-9-21-10-35v-26l-35-29-35-29-28 27-28 27v-86l10-6 10-7-7-18-7-17-30 29-31 29-24-30-24-30v36l-17-3-18-4-10 12c-5 7-25 15-42 19l-33 7v-14c0-7 5-30 9-52l9-38-11 11c-6 6-15 11-20 11h-8l5-22 6-23-10 20c-6 11-22 25-35 32l-25 11v-9c0-19-19-8-22 13-2 12-9 23-15 26l-13 4v-29c0-15-6-39-13-53l-12-25 3-22 3-22 20-6c10-4 19-10 19-15v-8l-24 11-24 12-4 26c-2 15-1 36 3 47 9 24 1 62-13 62h-10l6-15 5-15-9-22-9-23v18l-1 17h-25l15 10 14 9-14 25-13 26-12-17-13-17 5-13 5-13h-9c-5 0-19-9-32-21-27-25-38-19-19 10l13 22-15 9c-8 6-22 9-30 7l-15-3 2-32 3-31-15 5c-8 3-17 14-20 24l-6 18-19 5-20 5v-7c0-4 5-12 12-19l12-12h-11c-6 0-13 4-15 9-1 5-12 11-23 13l-20 3 3-25 3-25-20 25-20 25-12-13c-7-6-17-12-21-12h-9l3 17 3 17-20 4c-11 2-31 14-44 25l-24 22 5-21 6-22-9-13-9-14v44l-17 17-17 17-5-14c-6-19-23-33-43-37l-18-3v11c0 5-3 9-7 8-5-1-23 6-41 16l-34 17-15-5-14-6 6-10 6-10-15 6c-21 8-20 21 1 32l16 10h-53v-14c0-7-4-16-10-19l-9-6-18 21c-10 12-26 26-35 31l-18 9 6-15 6-15h-9c-5 0-17 14-27 31l-18 30 8 17 7 17 7-30 8-30 1 25c0 14-4 32-10 40l-11 15-5-13-5-12-8 5-9 5 5-47c3-26 9-52 14-57 6-6 10-16 10-24v-14l-15 12c-8 7-15 19-15 26 0 8-4 14-8 14-5 0-15 15-24 33l-16 33 5 30 4 29-15-19-16-20v10c0 6-11 16-25 22l-25 11 6 16 6 15h-23l2 13c1 6 1 19 0 27l-1 15-37 3-36 2-18-16-18-17-11 28-11 28 7 16 6 16 9-22 8-23h13c20 1 44 23 50 48l6 22h-39l-15-32-15-33 5 38 5 39-14-6-14-5-3 17-3 17-25-25c-14-14-35-38-47-55l-22-30-1 42v42l11 7 11 6-5 28-6 27 15 43 15 43-5 14-5 13h20l-6 10-6 10 15 16 16 15v57l-11 4-11 4 16 13 16 14-5-16-6-15 10-7 11-6 1-27v-27l9 21c5 12 9 49 9 83s2 83 5 109 3 39 0 30c-3-10-9-18-12-18-4 0-8-14-9-30-1-17-9-43-17-58-16-30-27-59-32-81-1-8-18-30-36-48l-34-34 2 40 2 40-12-5c-15-6-77-97-117-171-6-12-17-23-24-25-18-4-128-132-146-170-21-42-39-139-39-207v-52l-12 7-13 7 13-14c6-7 12-17 12-22v-8l-9 6-10 6-7-36c-8-46-13-41-23 26l-9 54 13 80c19 114 26 137 46 164 11 13 19 31 19 40v16l33 35c48 51 71 100 46 100h-10l5-9 6-9-17 2-16 1-34-45C96 535 38 469 33 474c-7 7 14 41 47 78 17 18 30 37 30 43s9 29 19 52l20 40 10 96c5 53 12 101 15 106l6 9-12 4-13 5 17 16 16 16 6-16 6-16-8-11c-5-6-12-47-15-91l-6-80 14 33c18 42 25 41 20-5-3-21-2-30 1-20 3 9 10 17 16 17h10l-5-21-5-20 14 12c8 6 14 20 14 30v19h-23l6 33 5 33-13 17-13 18 5 19c3 11 2 44-2 74l-6 55-20 6c-10 4-19 11-19 16v10l19-11 20-10 6 10c12 19 23 10 29-25l7-35h9c6 0 10 7 10 16v15l10-6 10-6 7 18 7 18 7-39c7-43 2-76-12-76-5 0-9 8-10 18v17l-9-22-9-21 6-21c3-12 9-21 13-21s10-9 13-20 12-23 21-26l16-6 18 8c9 4 19 7 22 6 3 0 6 16 8 36 1 21 6 38 10 39l7 3-1 57c-1 32 0 52 3 46 3-7 11-13 19-13h14v79l10 6c5 3 10 13 10 22v17l-45-47c-40-43-74-66-46-34l11 14-9 29-8 29 8 22c4 11 12 24 18 28l11 6v-10c0-5-4-11-9-13l-9-3 5-27 5-28 9 6 9 5-6 10-5 9 11-2 12-3 3 38 4 37h-21l7 18 6 17-12-13c-7-6-20-12-28-12l-16 1 23 18c12 11 22 25 22 31v12l-14-11-15-12-3 33c-2 18 0 44 5 58l8 25 32 24 32 25-22-25c-13-14-23-33-23-42v-17h20v-40h20v-18c0-20 27-62 40-62h9l6 38c4 20 9 44 11 53l4 16 30-5 29-4-16 41-16 41-15-12-15-13 21 42 22 42-6 14-5 15h-51l-11 12-12 13 13-7 12-7 10 28c5 15 14 35 18 43l9 14-8 41c-6 34-6 97 1 130 1 6 2 21 1 34l-1 24-17-15c-10-8-31-22-47-32l-28-18 7 13c5 8 21 31 38 52 16 20 25 37 21 37s1 9 11 20l18 20h-24l25 33c15 19 26 39 26 45s8 12 17 14l16 3 2 20c1 11 6 33 10 49l8 29-22-6c-31-8-26 2 8 14l29 10 6 16c4 9 5 18 2 20-6 6-77-35-104-60l-23-22 7 20c4 11 21 36 39 55 17 19 45 53 62 75l30 40-4 12-5 13 16 6c21 8 20 24-1 24l-18 1 35 32c38 36 70 80 70 98v11l-16-6-16-6 34 42 33 43-37-27c-60-46-59-32 4 30l58 59v41c0 23-2 42-4 42-3 0-10-16-18-36zm-263-114c-48-49-60-51-37-5l17 35 11-4c6-2 17 0 25 5 27 17 23 9-16-31zm105 21c0-6-4-13-10-16l-10-6v15c0 9 5 16 10 16 6 0 10-4 10-9zm-205-100 5-10-10-6-10-6v15c0 18 6 21 15 7zm184-72c-13-4-34-7-47-8l-23-1 6 10c3 6 17 10 31 10h24v22l16-13 17-14-24-6zm-114-34c-16-13-33-24-37-25-5 0-8-9-8-20v-20h-22c-13 0-30 5-38 10l-15 10h50l30 35 30 35h40l-30-25zm-125-115c0-5-5-10-11-10h-10l6 10c3 6 8 10 11 10 2 0 4-4 4-10zm62-18c-7-2-12-7-12-12v-8l22 6 21 5-43-41-44-41-13 11c-7 6-13 19-13 29v19h13c7 0 24 11 37 24l25 23 10-5 9-6-12-4zm-5-108c-3-3-12-4-19-1l-13 5 19 1c11 1 17-2 13-5zm88-4c-3-5-13-10-21-10h-15l6 10c3 6 13 10 21 10h15l-6-10zm-108-42-5-13-1 19c-1 11 2 17 5 13 3-3 4-12 1-19zm-187-58c0-5-4-10-10-10-5 0-10 5-10 10 0 6 5 10 10 10 6 0 10-4 10-10zm230-12 25 1-25-12-25-12 3-27 3-28h-22l7 12 7 11-12-7-11-7-16 15-15 16 7 12c5 7 13 18 19 24l10 12 10-6c6-4 21-6 35-4zm-182-25c-10-2-26-2-35 0l-18 5h70l-17-5zm34-75-12-12v10c0 14 12 26 19 19 2-3-1-11-7-17zm97-122 1-30 12 12c7 7 16 12 22 12h9l-18-20-18-20-11 16-12 15-17-7-18-7-6-28-6-29-12 10-12 10-19-6-19-7 23 22 23 23 6 29 6 29 14-12 15-12 9 15c5 8 9 23 10 34v20l9-20c5-11 9-33 9-49zm-82 2-5-13-1 19c-1 11 2 17 5 13 3-3 4-12 1-19zm-104-53c-7-21-13-19-13 6v20l10-6 9-6-6-14zm157-61v-15l-10 6c-5 3-10 10-10 16 0 5 5 9 10 9 6 0 10-7 10-16zm-220-24c0-5-2-10-4-10-3 0-8 5-11 10l-6 10h10c6 0 11-4 11-10zm223-8 22 11-13-15-13-16 10-4c5-1 12-19 14-38 3-19 6-35 7-35s3-13 4-30l3-30-14-35-14-35-12 24c-7 14-18 27-26 29l-14 5 6-22 5-21h-8c-4 0-11 7-14 16l-6 15 10 18 9 18-5 20-5 20 20 35 20 36-12-2c-7-1-18-5-24-9-18-11-16-1 4 30l17 26 4-12 4-11 21 12zm-215-52 2-31-11-22-12-22-8 20c-4 11-8 24-8 29l-1 8 15-6 15-5v7c0 5-5 13-10 18l-11 11 7 16c9 24 19 14 22-23zm52 10v-20h-20v40h20v-20zm-40-95v-15h13c6-1-1-7-18-14-35-16-46-11-20 8l18 13-7 11-7 12h10c6 0 11-7 11-15zm80 1c0-3-4-8-10-11l-10-6v10c0 6 5 11 10 11 6 0 10-2 10-4zm-113-88-5-13v50l5-12c2-7 2-19 0-25zm346 7c-3-9-8-14-10-11-3 3-2 9 2 15 9 16 15 13 8-4zm-184-59-12-56h-19l7 33c8 42 26 89 32 83 3-2-1-30-8-60zm2637 16c-12-11-18 7-10 30l8 23 4-23c2-13 1-26-2-30zm-2576 31c0-14-19-38-25-32-8 8 5 39 16 39 5 0 9-3 9-7zm-105-40c-4-16-9-37-10-47l-2-20-13-4-13-5 7 26c10 41 25 77 32 77 3 0 3-12-1-27zm242-22-22-49-3 13c-3 11 35 85 43 85 2 0-6-22-18-49zm-130-18-5-18v60l5-12c2-7 2-21 0-30zm-161-79c-2-6 0-16 6-22l10-10-6-11-7-11-25 29c-30 36-30 39 1 37l25-1-4-11zm178-16 11-8h-15c-8 0-37-11-65-25l-50-24 35 29c19 15 42 34 50 42l15 14 4-11c2-5 9-13 15-17zm2436-19c0-5-3-9-6-9-11 0-33 34-33 50v15l19-24c11-13 20-27 20-32zm22-11-12-12v10c0 14 12 26 19 19 2-3-1-11-7-17zm-2732-33c0-8-4-15-10-15-5 0-10 7-10 15s5 15 10 15c6 0 10-7 10-15zm108-10 2-24-10-6-10-6v24c0 19 7 37 14 37 1 0 3-11 4-25zm32-5c0-5-5-10-11-10h-10l6 10c3 6 8 10 11 10 2 0 4-4 4-10zm2637-12-5-13-1 19c-1 11 2 17 5 13 3-3 4-12 1-19zm-4-65 20-23h-33l-17 38c-26 57-26 59-7 32 9-14 26-35 37-47zm-2773 37c0-5-4-10-10-10-5 0-10 5-10 10 0 6 5 10 10 10 6 0 10-4 10-10zm270 5c0-2-10-10-22-16l-23-12 14 16c13 16 31 23 31 12zm-90-29c0-3-4-8-10-11l-10-6v10c0 6 5 11 10 11 6 0 10-2 10-4zm2640-25c0-9-28-41-35-41-3 0 1 11 7 25 11 25 28 34 28 16zM47 988l-5-13-1 19c-1 11 2 17 5 13 3-3 4-12 1-19zm2932-60c6-26 11-52 11-58v-11l-9 5c-5 3-11 23-14 43-3 21-8 49-12 63l-8 25 10-10c6-5 15-31 22-57zM184 965c-4-8-8-15-10-15s-4 7-4 15 4 15 10 15h9l-5-15zm2576-62v-33h-21l7 36 7 37-12-7-11-7v-79h-10c-5 0-10-5-10-12 0-15-50-121-55-116-3 2 2 28 10 58l14 53-6 10-6 10 11-7 12-7 10 26 10 27-6 9-6 10-14-12c-8-6-14-19-14-28l-1-16-19 24-20 23 6 10 7 11 10-19 11-19 18 40 17 40 1-25 1-25 17 28 17 27 12-17 13-17v-33zm147 20-5-18v70l5-17c2-10 2-26 0-35zM140 895v-45h-7c-10 0-15 68-7 81 10 17 14 9 14-36zm2697-2-5-18v60l5-12c2-7 2-21 0-30zM50 895c0-8-4-15-10-15-5 0-10 7-10 15s5 15 10 15c6 0 10-7 10-15zm2876-82c-11-11-17 4-9 23l7 19 4-18c2-10 1-21-2-24zm44-3c-16-40-23-33-9 9 6 18 14 30 17 27 2-3-1-19-8-36zM111 789l-10-24v17c-1 9 2 24 6 34l7 18 3-10c2-6-1-22-6-35zm2666-21-5-13v50l5-12c2-7 2-19 0-25zm140 15c-8-10-17-29-20-43l-5-25 1 35c1 44 4 50 24 50h16l-16-17zM146 764c-4-9-9-15-11-12-3 3-3 13 1 22s9 15 11 12c3-3 3-13-1-22zm2781-26-5-13-1 19c-1 11 2 17 5 13 3-3 4-12 1-19zm9-60c-3-13-5-26-5-30-1-10-31-10-31 0 0 9 29 52 36 52 2 0 2-10 0-22zm51-1c0-6-14-26-30-42l-29-30 12 23c9 19 41 62 46 62 0 0 1-6 1-13zM110 655c0-8-4-15-10-15h-9l5 15c4 8 8 15 10 15s4-7 4-15zm330-18c0-2-10-12-22-23l-23-19 19 23c18 21 26 27 26 19zm2020-67c-18-11-22-7-14 14l7 17 11-11 11-11-15-9zM644 395l7-40-18 35-18 35 9 7c13 9 12 10 20-37zm61-25 6-10h-10c-6 0-11 5-11 10 0 6 2 10 4 10 3 0 8-4 11-10zm2084-83 1-28 15-5c19-8 20-24 2-24h-14l-11-22-10-23 1 82 2 82 7-17c4-9 7-30 7-45zm99 13-4-30 10-4 11-4-15-12-15-12 13-5c6-2 12-9 12-14v-9h-62l7 18c3 9 11 36 18 60 6 23 15 42 20 42h9l-4-30zm92-52c0-25-13-58-22-58h-9l5 28c2 15 5 30 5 35 2 12 21 8 21-5zM890 210c0-5-2-10-4-10-3 0-8 5-11 10l-6 10h10c6 0 11-4 11-10zm40 1c0-6-4-13-10-16l-10-6v15c0 9 5 16 10 16 6 0 10-4 10-9zm1009-31 16-23-14 4c-8 3-21 16-30 29l-16 23 14-4c8-3 21-16 30-29zm-886-26-5-15-13 18c-7 10-11 21-8 26l5 8 13-11 14-11-6-15zm199-14c46-22 24-23-26 0l-46 20v33l23-19c12-11 34-26 49-34zm1433 40 6-10h-10c-6 0-11 5-11 10 0 6 2 10 4 10 3 0 8-4 11-10zm-240-30 6-10h-10c-6 0-11 5-11 10 0 6 2 10 4 10 3 0 8-4 11-10zM97 88l-5-13-1 19c-1 11 2 17 5 13 3-3 4-12 1-19zm2821-17c-7-12-18-21-25-21-18 0-16 6 9 30 26 24 34 20 16-9zM176 73c7-10 14-22 14-26v-8l-10 6c-13 8-33 45-24 45 4 0 13-8 20-17zm1732-13 12-20h-8c-10 0-32 22-32 32 0 15 15 8 28-12zM330 1465c0-8 5-15 10-15 6 0 10 7 10 15s-4 15-10 15c-5 0-10-7-10-15zm1770 1105c0-5-7-10-15-10h-15v-15c0-8-5-15-11-15h-10l6 10 6 10h-10c-5 0-17-8-27-17l-18-18 55-8c30-5 80-9 111-9l57-1-6-10-6-10 13 8c7 4 31 8 53 10l41 1-22-9c-27-12-29-27-3-27 11 0 23-4 26-10 3-5 12-10 19-10h13l11 25c7 14 12 42 12 62v36l-7-7c-4-4-8-15-8-24v-17l-78-1h-79l5 22 4 22-33 10-33 10-4-12-4-11-14 13c-16 15-29 16-29 2zm100-40c0-5-4-10-10-10-5 0-10 5-10 10 0 6 5 10 10 10 6 0 10-4 10-10zm560 41c0-5-12-24-27-43-15-18-20-27-13-20 8 6 20 12 28 12h14l-36-40-36-40v-39l-13 5-13 5 3-38 2-38-17-53-17-53-16 4-17 5-8-37c-4-20-9-44-11-53l-3-18h10c6 0 10-6 10-14 0-7 6-19 14-26l15-11-6-15-5-14h9c4 0 15 10 23 23l15 22 6 55c9 72 28 141 45 160l14 14v-24h35l-13 8-12 8 6 65c4 35 7 70 7 77 0 6 4 12 8 12h8v55c0 30-2 55-5 55-2 0-4-4-4-9zm-134-469c-12-11-18 7-10 30l8 23 4-23c2-13 1-26-2-30zm-396 448c0-5 5-10 11-10h10l-6 10c-3 6-8 10-11 10-2 0-4-4-4-10zm-1398-25c-7-15-11-30-8-32 7-7 28 36 24 49l-4 10-12-27zm1849-1 1-19 5 13c3 7 2 16-1 19-3 4-6-2-5-13zm-266-8-10-11v-40l1-40 14-21c8-11 21-24 29-29l14-8-7 11-6 11 10 6 10 6-6 11-7 10 21-6 20-7 5 8c3 5-3 27-13 48-10 22-19 36-20 30l-1-10-14 19c-8 11-15 16-15 10v-9l-8 11-7 12-10-12zm82-26c3-11 9-23 14-26l9-5v14c0 8-6 20-14 26l-14 12 5-21zm463-59c0-6 5-13 10-16l10-6v15c0 9-4 16-10 16-5 0-10-4-10-9zm-2145-20-5-10 10-6 10-6v15c0 18-6 21-15 7zm2105-1c0-5 5-10 10-10 6 0 10 5 10 10 0 6-4 10-10 10-5 0-10-4-10-10zm-450-30c0-5 5-10 10-10 6 0 10 5 10 10 0 6-4 10-10 10-5 0-10-4-10-10zm-1686-14c-5-6-10-20-10-31s-4-30-8-43l-7-22-10 5c-5 3-18 1-29-5l-20-11-25-49c-14-28-23-50-19-50 12 0 64 34 64 42 0 4 10 8 23 8h22l-12 8-12 8 30 32c16 18 33 32 37 32 3 0 1-5-6-12s-12-15-12-20v-7l15 5c21 9 19 30-7 55l-23 22 13 4 12 5-6 9-5 9h10c6 0 11-4 11-10 0-16 14-12 27 8l11 19h-27c-15 0-31-5-37-11zm2197-28c-1-26-15-45-24-31-2 5-2 3-1-4 1-6-1-24-6-40l-8-28-1 20-1 19-14-19c-7-11-19-37-26-59l-12-38 10-7 10-6-12-24-13-24-8 29c-5 16-9 32-9 36-1 4-7 13-13 20l-13 12v-15c0-12-33-49-44-49-2 0-7 7-10 16l-6 15 10-6 10-6-1 48-1 48-10-30c-6-16-12-32-15-34-4-5-32 32-46 59l-7 15 5-114c2-63 7-116 9-119 3-2 16-5 29-6l24-1 42-63 42-63-20 10-20 11-6-11-7-10 29-27c15-15 35-36 43-46l15-20-12 8c-17 9-16 6 3-32 8-18 19-32 24-32 4 0 12-17 17-37l9-38h27l13-35 12-35 1 42 1 42-20 34-20 33 5 83c3 46 8 87 11 93l6 9-12 14-12 15h21l-5 15-6 15 16-6 15-6v234l-15 15-14 15 16 27 16 27-10 34-10 35-1-27zm-231-178c0-5-2-10-4-10-3 0-8 5-11 10l-6 10h10c6 0 11-4 11-10zm20-72c0-5-4-8-10-8h-10v45l10-15c5-8 10-18 10-22zm100-90v-10l-15 12c-8 7-15 17-15 22v10l15-12c8-7 15-17 15-22zm50-94v-15l-10 6c-5 3-10 10-10 16 0 5 5 9 10 9 6 0 10-7 10-16zm13-82 6-53-9 6c-6 4-10 13-10 22s-8 25-17 36l-18 20 19-6 18-7-5 14c-3 8-3 17 0 20 9 9 10 7 16-52zm-1790 506-5-10-25 7-25 6-15-21c-8-11-19-20-25-20h-10l6 16 6 15-10-6c-6-3-10-13-10-20 0-8-8-19-19-24l-18-10-7 6-6 6v-31l53 3c28 2 79 7 112 10l61 7v17c0 9 4 26 8 38l7 22-36-1c-20-1-38-5-42-10zm1708-4 1-19 5 13c3 7 2 16-1 19-3 4-6-2-5-13zm-1956-2c-3-3-5-15-5-26l1-21 13 18 14 18 7-11 6-10 10 6c16 10 5 27-19 29-12 1-24-1-27-3zm65-13v-10l10 6c6 3 10 8 10 11 0 2-4 4-10 4-5 0-10-5-10-11zm334 3c-6-4-11-15-11-24v-18h66l6 9 5 10-22 15c-25 18-29 19-44 8zm-459-20c3-7 5-19 5-25l1-12 14 19c20 27 19 35-5 33l-20-1 5-14zm2022-19c-4-3-7-16-6-27v-21l10 24c10 24 8 36-4 24zm-936-62-13-8 23-17c13-9 31-16 41-16 9 0 20-4 23-10 3-5 12-10 18-10h12l-25 19-25 19 28 7c15 4 27 11 27 16v9h-47c-27 0-54-4-62-9zm152 2 19-5-4-44-3-44 20-6c11-3 38-14 60-24s65-23 95-30 57-16 60-20 15-10 28-14l22-7v41l25-16 25-16v24l15-6 15-5v9c0 6-12 20-27 33-15 12-36 31-48 42l-21 20-27-3-27-3v-15c0-9-6-22-14-29l-14-14-6 15c-3 9-4 20 0 25l5 9h-10c-6 0-11 7-11 15v15l-26 10c-14 6-30 8-35 4l-9-5v9c0 13-74 42-103 41l-22-1 18-5zm279-13v-25l5 13c2 6 2 18 0 25l-5 12v-25zm-1729-40c-9-16-21-30-25-30s-8-6-8-12v-13l23 25c22 24 41 60 32 60-2 0-12-13-22-30zm-472-16 1-19 5 13c3 7 2 16-1 19-3 4-6-2-5-13zm542 4c-5-7-13-19-17-25l-7-13h8c10 0 36 40 30 46-2 3-9-1-14-8zm-541-68v-25l5 13c2 6 2 18 0 25l-5 12v-25zm453-80-6-10h10c6 0 11 5 11 10 0 6-2 10-4 10-3 0-8-4-11-10zm2135-3c0-3 7-21 15-40l15-36 20-11 20-11v9c0 4-5 13-11 19-5 5-11 23-13 39l-3 29-22 3c-11 2-21 1-21-1zm253-72v-40l4 23c2 12 2 30 0 40l-5 17 1-40zm-230-51 17-21-5-15-6-14 16-36 15-37-6-15-6-14 19-19 19-19-7-24-7-25-1 29c-1 37-6 31-15-18l-7-39 20 6 21 5v-8c0-4-7-13-15-20l-15-12v-44l24-21 24-21-8-41c-4-23-6-41-5-41 2 0 13 16 24 36l22 37-6 28-7 29h22v90h19l-15 42c-8 23-20 49-27 58-7 8-23 38-36 65l-23 50-31 25-32 24 18-20zm66-107v-22l-9 20c-5 11-9 24-9 28l-1 8 10-6c6-3 10-16 9-28zm10-204v-28l-8 20c-5 11-7 23-4 28 8 14 13 7 12-20zm-1470 298-23-18v-34c0-19 3-42 7-52l6-17h58l21 23c12 13 22 29 22 35 0 18-30 61-50 72l-18 10-23-19zm290-59-32-28 27-46 27-46 24-6 25-6 25 16 25 16v70l-29 29c-37 36-52 36-92 1zM55 1759c-4-6-5-12-2-15 2-3 7 2 10 11 7 17 1 20-8 4zm2665 2c0-5 7-15 17-22l16-14-12 23c-12 23-21 28-21 13zm-19-43c9-7 21-32 28-55l12-43h26l-1 44c0 24-5 48-10 53l-9 8 6-17 6-18h-8c-4 0-16 9-26 20s-23 20-28 20h-11l15-12zM80 1641v-9l-20 5-20 5v-47l8 11c4 6 17 14 30 18 22 7 31 26 12 26-5 0-10-4-10-9zm2630-34c0-7 7-22 16-33l16-19-6 18c-3 10-6 25-6 33s-4 14-10 14c-5 0-10-6-10-13zM6 1583l-7-18 12 12c7 7 10 15 7 18s-9-2-12-12zm2748-29-12-5 5-19c3-11 9-20 14-20h9v25c0 14-1 25-2 24-2 0-8-3-14-5zm-2229-54-6-10h15c9 0 16 5 16 10 0 6-4 10-9 10-6 0-13-4-16-10zm2178-4c-26-12-30-26-9-26 8 0 16-7 20-15l5-15h-19v-51l13 13c8 7 19 30 26 51l12 37-6 10c-7 12-12 11-42-4zm97 7c1-5 7-19 15-33l14-25 1 17c0 23-11 48-21 48-5 0-9-3-9-7zm-9-39 1-19 5 13c3 7 2 16-1 19-3 4-6-2-5-13zm-10-51c0-10-3-38-6-63l-7-45 20 31 20 31-5 27c-3 14-9 29-14 31l-8 5v-17zm-2225-12c-4-7-5-15-2-18 9-9 19 4 14 18l-4 13-8-13zm2176-64-11-13 8-13 8-13 6 23c8 28 3 34-11 16zm-1727-87 6-10 52 1 52 1-30 8c-16 4-43 8-58 9l-28 1 6-10zm-495-45c0-6 7-32 15-60l15-50-6 50c-3 28-10 54-15 60l-9 9v-9zm2150-64c0-25 6-27 13-6l6 14-9 6-10 6v-20zm-817-9c30-33 147-84 147-63-1 18-22 33-70 50-30 10-64 22-75 27l-20 7 18-21zm780-25v-14h28l-4 11c-2 5-8 11-13 13l-11 4v-14zm-163-237c0-11 2-20 4-20s6 9 9 20l5 20h-9c-5 0-9-9-9-20zM270 796v-36h20v59l-10 6-10 6v-35zm23-46c-13-15-23-34-23-41v-14l23 25c13 14 26 33 30 43l6 17-7-1c-4 0-17-13-29-29zm2111-25c-8-33-1-40 18-18l16 18-14 13-14 12-6-25zm-239-394-5-10 10-6 10-6v15c0 18-6 21-15 7zm-915-68c0-5 7-16 14-26l14-18 7 10 6 11-15 15c-16 16-26 19-26 8zm-110-12c0-5 5-13 10-16l10-6v10c0 5-4 13-10 16l-10 6v-10zm180-51v-10h55l-15 10c-20 13-40 13-40 0z"/></g></g></svg>